<?xml version="1.0" encoding="UTF-8" standalone="no"?>
<svg
   version="1.1"
   id="Layer_1"
   x="0px"
   y="0px"
   width="100%"
   viewBox="0 0 640 640"
   enable-background="new 0 0 640 640"
   xml:space="preserve"
   sodipodi:docname="file - Copy.svg"
   inkscape:version="1.3.2 (091e20e, 2023-11-25, custom)"
   xmlns:inkscape="http://www.inkscape.org/namespaces/inkscape"
   xmlns:sodipodi="http://sodipodi.sourceforge.net/DTD/sodipodi-0.dtd"
   xmlns="http://www.w3.org/2000/svg"
   xmlns:svg="http://www.w3.org/2000/svg"><defs
   id="defs1" /><sodipodi:namedview
   id="namedview1"
   pagecolor="#ffffff"
   bordercolor="#000000"
   borderopacity="0.25"
   inkscape:showpageshadow="2"
   inkscape:pageopacity="0.0"
   inkscape:pagecheckerboard="0"
   inkscape:deskcolor="#d1d1d1"
   inkscape:zoom="0.92476309"
   inkscape:cx="280.61241"
   inkscape:cy="328.19217"
   inkscape:window-width="1920"
   inkscape:window-height="1051"
   inkscape:window-x="-9"
   inkscape:window-y="-9"
   inkscape:window-maximized="1"
   inkscape:current-layer="Layer_1" />
<g
   inkscape:groupmode="layer"
   id="layer1"
   inkscape:label="background"><rect
     style="fill:#000000;fill-opacity:1;stroke:none;stroke-width:8.55593;paint-order:stroke fill markers"
     id="rect1"
     width="639.86169"
     height="639.96765"
     x="0.096909404"
     y="0.041382413" /></g><path
   fill="#000000"
   opacity="1.000000"
   stroke="none"
   d=" M234.224823,541.817749   C217.630096,529.524292 201.350052,517.409729 185.035492,505.341736   C179.770996,501.447571 173.735229,498.637207 169.580627,493.213959   C165.523849,487.918518 164.591217,481.813721 163.753128,475.529327   C161.782761,460.754761 159.656082,446.001038 157.623367,431.234680   C157.356079,429.292969 156.329605,428.874908 154.505249,429.025330   C137.544998,430.423981 125.467567,422.504120 115.719009,409.323669   C103.070107,392.221832 94.246422,373.483551 89.996391,352.661255   C86.558945,335.820068 86.347015,319.086700 92.645241,302.717590   C96.035660,293.905914 102.765915,288.410980 111.056503,284.858734   C116.341675,282.594116 122.004868,282.740936 127.502937,284.976624   C129.450531,285.768585 131.562988,286.155090 134.065247,286.857178   C133.924500,275.987183 136.167999,265.985199 134.135315,255.224884   C131.636673,241.997955 132.130341,228.150970 132.615906,214.523163   C133.304276,195.203232 135.945419,176.263260 141.911591,157.791931   C143.829269,151.854813 145.122421,145.924545 151.234848,142.625641   C159.803375,138.001129 168.249863,133.151031 176.797485,128.487091   C183.895935,124.613907 184.024414,123.945206 179.557709,117.285782   C176.878067,113.290703 173.229095,109.982475 171.352081,105.418564   C168.892624,99.438431 171.899887,93.690567 177.932495,91.402679   C182.909424,89.515160 187.297791,89.654449 192.355423,91.284431   C197.493484,92.940331 203.158356,92.648422 208.545792,93.831810   C214.410599,95.120064 219.961899,97.153946 225.544327,99.226120   C227.218567,99.847588 229.073013,99.983658 231.655350,100.506058   C230.885086,94.517212 230.271393,89.030212 229.451050,83.574280   C228.673218,78.401062 229.557205,73.360390 230.206253,68.272102   C231.150162,60.872383 236.036011,57.057568 242.373337,54.471657   C246.440659,52.812016 249.161942,55.671516 251.600067,57.829304   C261.148804,66.280075 270.416565,75.048119 279.796539,83.689812   C282.729401,86.391861 284.690674,90.033844 289.091370,92.877647   C288.180328,85.155159 289.468750,78.143501 289.705719,71.038040   C289.870850,66.088333 287.972168,61.311420 289.445679,56.198063   C291.445282,49.258984 300.274384,45.317577 306.886017,48.474930   C313.608673,51.685284 316.333282,58.070160 319.854584,63.730007   C322.833984,68.518883 326.615356,72.793930 328.953644,78.009789   C329.600067,79.451706 330.976471,80.611176 333.393097,81.212173   C334.823792,77.288651 336.351807,73.342033 337.703217,69.335815   C339.828369,63.035881 341.863922,56.679111 345.188141,50.901321   C349.818268,42.853718 357.009796,42.748112 362.619690,50.176167   C370.509491,60.623020 372.474396,72.795204 373.409943,85.322975   C373.541565,87.085258 372.897705,89.054733 375.447113,90.540192   C381.852783,85.723846 388.822235,81.346901 394.728729,75.454491   C399.768097,70.427124 404.973328,65.535530 410.414398,60.950863   C414.795990,57.258842 420.281860,57.861858 424.407990,61.845745   C429.456909,66.720596 430.241516,73.141991 426.718872,79.004463   C420.629272,89.138977 413.993805,98.897560 406.920074,108.364761   C406.230194,109.288094 405.389282,110.172333 405.834595,111.552406   C407.067291,113.070839 408.864105,112.631607 410.452942,112.621223   C422.627411,112.541702 434.450073,115.197044 446.404846,116.938080   C454.624329,118.135132 462.676056,120.168854 470.683594,122.035057   C483.576477,125.039810 495.956116,129.788834 505.154694,140.379501   C508.213165,143.900879 507.385223,147.974243 508.040527,151.711121   C511.258759,170.063263 511.825409,188.506622 510.661255,207.193314   C509.733337,222.087738 508.326782,236.941757 507.188904,251.808853   C506.520233,260.545837 506.901428,269.414795 504.888885,278.048248   C504.066650,281.575562 504.925507,283.204468 509.002289,281.947540   C524.602905,277.137817 538.895203,285.009949 545.740356,298.824707   C550.650940,308.735077 551.196960,319.141693 549.618469,329.916107   C547.697327,343.029053 546.592407,356.276703 544.269043,369.311859   C541.299500,385.971802 536.318909,402.167389 524.223633,414.670685   C516.446472,422.710175 507.165283,428.862122 495.019257,428.735840   C490.876434,428.692780 489.016144,429.928467 488.566620,435.731140   C487.601837,448.185577 485.912476,460.696655 483.910919,473.127747   C481.514221,488.013397 472.328857,497.779175 462.954590,508.235962   C454.414917,517.761780 446.077484,527.344666 435.748871,534.962341   C421.279877,545.633789 406.181946,555.291138 389.939484,563.097107   C383.871063,566.013489 377.262329,566.128296 370.915283,566.189331   C343.443695,566.453552 315.965881,566.002686 288.492157,566.151978   C278.003143,566.208984 268.823456,563.066650 259.860626,557.884277   C251.215195,552.885498 242.651062,547.817566 234.224823,541.817749  M211.622574,343.041656   C206.078598,339.745667 202.027649,334.872223 198.010208,329.999084   C189.042648,319.121582 183.566864,306.412170 180.789490,292.835907   C178.729584,282.766815 173.522995,277.265259 162.631088,277.301697   C159.836227,291.950867 158.986908,306.750519 160.049088,321.654236   C160.824844,332.539307 156.879959,336.679871 146.689316,335.218994   C145.092606,334.990082 143.525955,334.244598 142.051605,333.521484   C135.231888,330.176697 130.613617,324.541962 126.445503,318.423309   C124.913773,316.174805 122.765457,313.775360 119.982094,314.829071   C116.963692,315.971741 115.179504,318.772217 115.641922,322.409027   C117.393524,336.184875 118.519753,350.010162 123.646049,363.215942   C126.130280,369.615601 129.012421,375.835114 132.473633,381.568512   C136.574081,388.360840 140.418427,395.773407 148.723495,399.140564   C153.046753,400.893372 154.798279,400.064453 155.604340,395.669647   C156.506622,390.750183 159.516800,387.545715 164.514511,386.842346   C168.386307,386.297424 172.118530,390.050354 174.407761,395.326782   C177.790207,403.123077 180.335648,411.131073 182.315781,419.399170   C185.785294,433.886353 189.978241,448.204254 193.270065,462.728638   C195.581955,472.929138 199.575729,481.136383 208.740707,487.421509   C227.383163,500.206055 246.370575,512.416504 265.729980,524.036804   C273.045807,528.428162 280.406219,533.673157 289.270233,534.187561   C300.404663,534.833618 311.595886,534.687134 322.759918,534.586609   C335.151703,534.475098 347.540924,534.046387 359.930389,533.722900   C366.319580,533.556152 372.631836,535.111328 379.105591,532.679993   C394.343079,526.957092 406.727264,516.995117 419.370850,507.252106   C426.735321,501.577118 432.983704,494.649597 440.599152,489.269135   C446.646912,484.996307 452.088379,479.582611 454.394989,472.603119   C460.491028,454.157501 463.744049,434.936249 467.245422,415.899811   C469.875824,401.598755 472.145294,387.151978 473.961731,372.656372   C476.452118,352.782471 480.380585,333.092407 483.334595,313.270203   C484.018738,308.679382 485.815155,303.856995 483.861633,298.431427   C481.608795,300.802155 480.989960,303.038757 480.194946,305.182251   C477.461243,312.552490 474.355164,320.009460 468.332977,325.075836   C459.017883,332.912476 450.222107,341.763641 438.044617,345.450012   C431.556488,347.414093 425.149597,350.387115 418.275208,349.801727   C407.538269,348.887421 396.713287,350.126801 386.002319,347.503601   C379.680359,345.955353 379.106812,347.391479 379.366241,354.074341   C379.743103,363.782166 383.386200,372.799530 384.902466,382.272522   C387.585388,399.034637 382.193634,408.681122 364.450623,411.442291   C356.935425,412.611786 349.295563,411.207794 341.874878,409.306000   C333.361725,407.124237 324.780853,405.108612 317.124847,400.556641   C315.010773,399.299683 312.494385,397.775269 313.276733,394.792633   C314.059692,391.807648 315.923553,389.152435 319.342041,388.934143   C325.101990,388.566315 330.484070,386.105347 336.551453,386.932129   C341.909454,387.662231 347.495728,386.916962 352.964935,386.568237   C357.448822,386.282318 361.490997,382.436005 360.537750,379.134338   C357.977295,370.266144 357.918671,361.089294 356.718750,352.059845   C353.947235,331.204376 351.304108,310.331543 348.689423,289.455719   C348.228638,285.776428 346.371796,284.441315 342.733582,284.273834   C335.789978,283.954132 329.245209,285.170441 322.911285,287.971130   C321.431122,288.625610 320.314087,289.341919 319.896088,290.949738   C318.728424,295.440735 317.386169,299.893097 316.402954,304.423676   C315.034851,310.727448 314.088104,317.221069 310.748810,322.816437   C300.148163,340.579010 283.018066,348.687042 263.758881,352.101624   C245.869354,355.273376 228.378387,352.504669 211.622574,343.041656  M206.774597,166.427383   C200.181213,168.444397 194.677429,172.676163 188.480713,175.452576   C181.645782,178.514969 178.573776,183.836197 177.365723,190.846298   C174.747070,206.041534 171.998611,221.214569 169.258469,236.388596   C168.503754,240.568069 166.441711,244.608444 168.079208,249.386902   C173.970825,249.719498 179.858231,250.341217 185.790222,248.928253   C192.938126,247.225708 200.319382,247.343964 207.567230,247.118591   C219.464371,246.748627 231.395599,247.277893 243.306900,247.621063   C253.075836,247.902512 262.865265,247.394577 272.614899,248.605392   C280.497131,249.584290 288.439911,250.227829 296.297913,251.238510   C303.842834,252.208908 311.999603,252.380264 318.010223,258.505920   C319.632050,260.158752 321.785828,260.142456 324.078857,259.904358   C332.498566,259.030151 340.980103,258.567444 349.358734,259.931824   C352.249817,260.402618 354.850250,260.204803 356.932861,258.677887   C365.959167,252.059952 376.490204,250.748962 387.099426,249.665039   C400.628265,248.282837 414.147797,246.600388 427.715454,245.892288   C434.993439,245.512451 442.239868,244.022873 449.603607,244.884079   C455.514954,245.575409 461.488281,246.500366 467.397369,246.289856   C479.913605,245.843964 479.304840,246.675934 478.098206,233.875229   C477.346375,225.899338 475.000183,218.242081 473.843109,210.390686   C472.026398,198.063309 470.354614,185.731033 466.645905,173.807098   C464.868896,168.093765 461.886444,163.581253 455.417236,161.586761   C448.767212,159.536530 442.029999,157.939041 435.340912,156.100830   C420.616028,152.054352 405.842346,148.255081 390.736755,145.953079   C377.458618,143.929596 364.177612,142.044617 350.744568,141.039490   C338.043152,140.089081 325.220856,139.015091 312.661987,139.797485   C295.347961,140.876114 278.130005,143.898911 261.134552,148.063568   C242.692612,152.582642 224.700989,158.140839 206.774597,166.427383  M518.154053,309.914032   C515.106628,311.576324 512.242920,313.870697 508.731293,314.232574   C505.399994,314.575928 504.315948,316.051178 503.931061,319.259613   C502.412506,331.917114 500.785095,344.567596 498.851837,357.167572   C496.996399,369.260559 494.888336,381.308044 494.071472,393.538239   C493.914764,395.884277 492.934540,398.196472 493.593201,400.344788   C506.537933,395.135986 510.703094,383.249939 514.153870,372.115936   C519.393921,355.208923 521.280945,337.412750 523.249817,319.803223   C523.661499,316.120544 525.322449,311.524628 521.724548,307.797394   C520.690308,308.395050 519.713074,308.959778 518.154053,309.914032  z"
   id="path1"
   style="fill:none;fill-opacity:1;stroke:#ffffff;stroke-opacity:1;stroke-width:5;stroke-dasharray:none" />
</svg>
